

[center]

[img]http://img41.imageshack.us/img41/9074/greeningofwhitneybrown.jpg[/img]

Another Fine Release Brought to you from - ZOMBiES                  
                                               

******************************************************************************************                              
                     The Greening of Whitney Brown 2011 DVDRip XviD AC3 - ZOMBiES                                                               
******************************************************************************************


Release Name : The Greening of Whitney Brown 2011 DVDRip XviD AC3 - ZOMBiES
Rating : 8.9/10
Genre : Adventure
Stars : Sammi Hanratty, Brooke Shields, Aidan Quinn, Kris Kristofferson
Director : Peter Skillman Odiorne
Writers : Gail Gilchriest
Release Date : N/A
Movie Runtime : N/A
Rated Under : PG
Movie Plot : Whitney, a spoiled pre-teen from Philadelphia, is forced to move to the country when her parents feel the squeeze of economic hard times...

 
http://imdb.com/title/tt1507564/


Format                           : AVI
Format/Info                      : Audio Video Interleave
File size                        : 1.51 GiB
Duration                         : 1h 27mn
Overall bit rate                 : 2 474 Kbps
Writing application              : VirtualDubMod 1.5.4.1 (build 2178/release)
Writing library                  : VirtualDub build 32842/release

Video
ID                               : 0
Format                           : MPEG-4 Visual
Format profile                   : Advanced Simple@L5
Format settings, BVOP            : 2
Format settings, QPel            : No
Format settings, GMC             : No warppoints
Format settings, Matrix          : Default (H.263)
Muxing mode                      : Packed bitstream
Codec ID                         : XVID
Codec ID/Hint                    : XviD
Duration                         : 1h 27mn
Bit rate                         : 929 Kbps
Width                            : 720 pixels
Height                           : 304 pixels
Display aspect ratio             : 2.35:1
Frame rate                       : 23.976 fps
Color space                      : YUV
Chroma subsampling               : 4:2:0
Bit depth                        : 8 bits
Scan type                        : Progressive
Compression mode                 : Lossy
Bits/(Pixel*Frame)               : 0.177
Stream size                      : 582 MiB (38%)
Writing library                  : XviD 64

Audio
ID                               : 1
Format                           : AC3
Format settings, Endianness      : Little
Format settings, Sign            : Signed
Codec ID                         : 1
Duration                         : 1h 27mn
Bit rate mode                    : Constant
Bit rate                         : 1 536 Kbps
Channel(s)                       : 2 channels
Sampling rate                    : 48.0 KHz
Bit depth                        : 16 bits
Stream size                      : 963 MiB (62%)
Interleave, duration             : 42 ms (1.00 video frame)
Interleave, preload duration     : 500 ms

Want to know what's ZOMBiES next release ? 


GREETS:

FLAWL3SS,ViSiON,Rx,ELEKTRI4KA,26K,DTRG,3LT0N,RemixHD
And to all the other p2p grps past and present .

Looking for these,syncers,cammers,audio,silver supplier.....Have anything to offer????......
You know how to find us .

      Another Fine Release Brought to you from - ZOMBiES                  
                                               

******************************************************************************************                              
                     The Greening of Whitney Brown 2011 DVDRip XviD AC3 - ZOMBiES                                                               
******************************************************************************************


Release Name : The Greening of Whitney Brown 2011 DVDRip XviD AC3 - ZOMBiES
Rating : 8.9/10
Genre : Adventure
Stars : Sammi Hanratty, Brooke Shields, Aidan Quinn, Kris Kristofferson
Director : Peter Skillman Odiorne
Writers : Gail Gilchriest
Release Date : N/A
Movie Runtime : N/A
Rated Under : PG
Movie Plot : Whitney, a spoiled pre-teen from Philadelphia, is forced to move to the country when her parents feel the squeeze of economic hard times...

 
http://imdb.com/title/tt1507564/


Format                           : AVI
Format/Info                      : Audio Video Interleave
File size                        : 1.51 GiB
Duration                         : 1h 27mn
Overall bit rate                 : 2 474 Kbps
Writing application              : VirtualDubMod 1.5.4.1 (build 2178/release)
Writing library                  : VirtualDub build 32842/release

Video
ID                               : 0
Format                           : MPEG-4 Visual
Format profile                   : Advanced Simple@L5
Format settings, BVOP            : 2
Format settings, QPel            : No
Format settings, GMC             : No warppoints
Format settings, Matrix          : Default (H.263)
Muxing mode                      : Packed bitstream
Codec ID                         : XVID
Codec ID/Hint                    : XviD
Duration                         : 1h 27mn
Bit rate                         : 929 Kbps
Width                            : 720 pixels
Height                           : 304 pixels
Display aspect ratio             : 2.35:1
Frame rate                       : 23.976 fps
Color space                      : YUV
Chroma subsampling               : 4:2:0
Bit depth                        : 8 bits
Scan type                        : Progressive
Compression mode                 : Lossy
Bits/(Pixel*Frame)               : 0.177
Stream size                      : 582 MiB (38%)
Writing library                  : XviD 64

Audio
ID                               : 1
Format                           : AC3
Format settings, Endianness      : Little
Format settings, Sign            : Signed
Codec ID                         : 1
Duration                         : 1h 27mn
Bit rate mode                    : Constant
Bit rate                         : 1 536 Kbps
Channel(s)                       : 2 channels
Sampling rate                    : 48.0 KHz
Bit depth                        : 16 bits
Stream size                      : 963 MiB (62%)
Interleave, duration             : 42 ms (1.00 video frame)
Interleave, preload duration     : 500 ms

Want to know what's ZOMBiES next release ? 


GREETS:

FLAWL3SS,ViSiON,Rx,ELEKTRI4KA,26K,DTRG,3LT0N,RemixHD
And to all the other p2p grps past and present .

Looking for these,syncers,cammers,audio,silver supplier.....Have anything to offer????......
You know how to find us .

[img]http://img846.imageshack.us/img846/9996/tgowb1.jpg[/img]
[img]http://img507.imageshack.us/img507/9391/tgowb2.jpg[/img][/center]